<?xml version="1.0" encoding="utf-8"?>
<!-- Generator: Adobe Illustrator 15.1.0, SVG Export Plug-In  -->
<!DOCTYPE svg PUBLIC "-//W3C//DTD SVG 1.1//EN" "http://www.w3.org/Graphics/SVG/1.1/DTD/svg11.dtd" [
	<!ENTITY ns_flows "http://ns.adobe.com/Flows/1.0/">
]>
<svg version="1.1"
	 xmlns="http://www.w3.org/2000/svg" xmlns:xlink="http://www.w3.org/1999/xlink" xmlns:a="http://ns.adobe.com/AdobeSVGViewerExtensions/3.0/"
	 x="0px" y="0px" width="60px" height="27px" viewBox="0 9.8 60 27" style="overflow:visible;enable-background:new 0 9.8 60 27;"
	 xml:space="preserve">
<style type="text/css">
<![CDATA[
g {
	fill: #1A9DC8;
	stroke: #1A9DC8;
}
]]>
</style>
<defs>
</defs>
<g>
	<path d="M19.3,11.7c1.5,0.6,2.9,1.4,4,2.5s2.1,2.3,2.7,3.7c0.6,1.4,1,2.9,1,4.5c0,1.6-0.3,3.1-1,4.5c-0.6,1.4-1.5,2.7-2.7,3.7
		s-2.5,1.9-4,2.5c-1.5,0.6-3.2,0.9-4.9,0.9c-1.7,0-3.4-0.3-4.9-0.9c-1.5-0.6-2.9-1.5-4-2.5s-2.1-2.3-2.7-3.7c-0.6-1.4-1-2.9-1-4.5
		c0-1.6,0.3-3.1,1-4.5c0.6-1.4,1.5-2.7,2.7-3.7s2.5-1.9,4-2.5c1.5-0.6,3.2-0.9,4.9-0.9C16.1,10.8,17.8,11.1,19.3,11.7z M57.1,17.9
		c-0.7-1.4-1.6-2.6-2.7-3.7s-2.5-1.9-4-2.5c-1.5-0.6-3.2-0.9-4.9-0.9c-1.7,0-3.3,0.3-4.9,0.9c-1.5,0.6-2.9,1.4-4,2.5
		s-2.1,2.3-2.7,3.7s-1,2.9-1,4.5c0,1.6,0.3,3.1,1,4.5c0.7,1.4,1.6,2.7,2.7,3.7s2.5,1.9,4,2.5c1.5,0.6,3.2,0.9,4.9,0.9
		c1.7,0,3.4-0.3,4.9-0.9c1.5-0.6,2.9-1.5,4-2.5s2-2.3,2.7-3.7c0.7-1.4,1-2.9,1-4.5C58.1,20.8,57.8,19.3,57.1,17.9z"/>
</g>
</svg>
