<?xml version="1.0" encoding="utf-8"?>
<!-- Generator: Adobe Illustrator 15.1.0, SVG Export Plug-In  -->
<!DOCTYPE svg PUBLIC "-//W3C//DTD SVG 1.1//EN" "http://www.w3.org/Graphics/SVG/1.1/DTD/svg11.dtd" [
	<!ENTITY ns_flows "http://ns.adobe.com/Flows/1.0/">
]>
<svg version="1.1"
	 xmlns="http://www.w3.org/2000/svg" xmlns:xlink="http://www.w3.org/1999/xlink" xmlns:a="http://ns.adobe.com/AdobeSVGViewerExtensions/3.0/"
	 x="0px" y="0px" width="33px" height="55px" viewBox="12.5 9.8 33 55"
	 style="overflow:visible;enable-background:new 12.5 9.8 33 55;" xml:space="preserve">
<style type="text/css">
<![CDATA[
g {
	fill: #1A9DC8;
	stroke: #1A9DC8;
}
	.st2{font-size:72;}
]]>
</style>
<defs>
</defs>
<g>
	<path d="M22.5,21c0-0.3,0-1,0.1-2.1c0.1-1.1,0.5-2.2,1.2-3.4c0.7-1.2,1.9-2.2,3.5-3.2c1.6-0.9,4-1.4,7-1.4h8.6v9.4h-6.3
		c-0.6,0-1.2,0.2-1.7,0.7s-0.8,0.9-0.8,1.3v5.9h8.9c-0.1,1.1-0.2,2.3-0.3,3.3l-0.4,2.8c-0.1,1-0.3,1.9-0.4,2.7h-7.8v26.1H22.5V37.1
		h-5.7v-8.9h5.7V21z"/>
</g>
</svg>
