<?xml version="1.0" encoding="utf-8"?>
<!-- Generator: Adobe Illustrator 15.1.0, SVG Export Plug-In . SVG Version: 6.00 Build 0)  -->
<!DOCTYPE svg PUBLIC "-//W3C//DTD SVG 1.1//EN" "http://www.w3.org/Graphics/SVG/1.1/DTD/svg11.dtd">
<svg version="1.1" id="Layer_1" xmlns="http://www.w3.org/2000/svg" xmlns:xlink="http://www.w3.org/1999/xlink" x="0px" y="0px"
	 width="100px" height="100px" viewBox="0 -3.519 100 100" enable-background="new 0 -3.519 100 100" xml:space="preserve">
<path fill="#96834E" stroke="#96834E" d="M59.771,62.407c2.268,0,4.084-1.831,4.084-4.098c0-2.26-1.816-4.097-4.084-4.097
	s-4.107,1.837-4.107,4.097C55.664,60.576,57.505,62.407,59.771,62.407z M100.364,91.942c-24.28,0.361-49.657-4.283-69.082-19.887
	l0,0c-0.125-0.111-0.174-0.261-0.174-0.436c0-0.373,0.299-0.66,0.647-0.66l19.151,0.025c0.922,0,1.693-0.76,1.693-1.693
	c0-0.697-0.324-1.184-1.071-1.557L34.22,59.474c-0.324-0.199-0.548-0.562-0.548-0.972c0-0.312,0.125-0.592,0.324-0.803l0,0
	c0,0,21.093-18.641,66.368-18.23V91.942z"/>
</svg>
