<?xml version="1.0" encoding="utf-8"?>
<!-- Generator: Adobe Illustrator 15.1.0, SVG Export Plug-In  -->
<!DOCTYPE svg PUBLIC "-//W3C//DTD SVG 1.1//EN" "http://www.w3.org/Graphics/SVG/1.1/DTD/svg11.dtd" [
	<!ENTITY ns_flows "http://ns.adobe.com/Flows/1.0/">
]>
<svg version="1.1"
	 xmlns="http://www.w3.org/2000/svg" xmlns:xlink="http://www.w3.org/1999/xlink" xmlns:a="http://ns.adobe.com/AdobeSVGViewerExtensions/3.0/"
	 x="0px" y="0px" width="61px" height="39px" viewBox="0 9.8 61 39" style="overflow:visible;enable-background:new 0 9.8 61 39;"
	 xml:space="preserve">
<style type="text/css">
<![CDATA[
g {
	fill: #1A9DC8;
	stroke: #1A9DC8;
}	
	.st2{font-size:72;}
]]>
</style>
<defs>
</defs>
<g>
	<path d="M51.7,26.9c0.8,0.3,1.8,0.6,3,0.7c0.6,0,1.1,0.1,1.7,0.1c0.6,0,1.2,0,1.8-0.1c-0.7,0.6-1.5,1.2-2.6,1.7
		c-1.1,0.5-2.4,0.7-4.1,0.7c-0.8,2.9-2.2,5.5-4.3,7.8c-2.1,2.3-4.6,4.2-7.4,5.7c-2.9,1.5-6,2.5-9.5,3.1c-1.9,0.4-3.9,0.5-5.8,0.5
		c-1.5,0-3-0.1-4.4-0.3c-3.4-0.4-6.7-1.5-9.8-3.1c-3.2-1.6-5.9-4-8.3-7c1.3,1.2,2.9,2.1,4.7,2.8c1.8,0.6,3.6,1,5.6,1
		c1.9,0,3.8-0.3,5.7-1c1.9-0.7,3.5-1.8,5-3.2c-0.3,0-0.6,0.1-0.8,0.1c-0.5,0-1-0.1-1.5-0.3c-0.7-0.3-1.2-0.7-1.5-1.1
		c-0.3-0.5-0.3-1,0-1.6c0.3-0.6,1-1.1,2.1-1.5c-0.4,0-0.7,0.1-1.1,0.1c-0.5,0-1,0-1.5-0.1c-0.8-0.1-1.4-0.4-2-0.7
		c-0.6-0.3-1-0.7-1.4-1.1c-0.4-0.4-0.7-0.8-0.9-1.3c0.5-0.4,1-0.7,1.6-1c0.6-0.2,1.4-0.4,2.3-0.4c-2.2-0.5-3.7-1.2-4.6-2.1
		s-1.5-2-1.7-3.2c0.6-0.1,1.3-0.2,1.9-0.3c0.6-0.1,1.2-0.1,1.5-0.1c-1.8-0.9-3.1-2-3.8-3.2c-0.6-1.1-0.9-2.1-0.9-3
		c0-0.1,0-0.2,0-0.4c3.3,1.1,6.1,2.2,8.3,3.2c2.3,1,4.3,1.9,6,2.8c0.7,0.3,1.4,0.7,2,1.3l2.2,1.9c0.5-1.2,1-2.5,1.6-3.7
		c0.6-1.2,1.3-2.4,2-3.5c0.7-1.1,1.5-2.2,2.3-3.1c0.9-0.9,1.9-1.7,3-2.3c0,0.5-0.3,1.1-0.8,1.6c0.6-0.5,1.3-1,2.1-1.3
		c0.7-0.3,1.5-0.6,2.3-0.7c-0.1,0.5-0.5,1-1.2,1.3c-0.7,0.3-1.3,0.6-1.8,0.8c0.2,0,0.6-0.2,1.1-0.4c0.6-0.2,1.1-0.4,1.8-0.5
		c0.6-0.2,1.2-0.3,1.7-0.3c0.5,0,0.8,0,0.9,0.3c0.1,0.3,0.1,0.5-0.2,0.7c-0.3,0.2-0.7,0.4-1.1,0.5c-0.4,0.1-0.9,0.3-1.3,0.4
		c-0.4,0.1-0.7,0.2-0.9,0.2L39,14.3c0.3,0,0.5,0,0.8,0c1.1,0,2.1,0.2,3.2,0.5c1.3,0.4,2.4,1,3.5,1.8c1.1,0.8,2,1.8,2.8,2.9
		c0.8,1.1,1.4,2.3,1.8,3.6l0.1,0.6c0,0.2,0.1,0.4,0.1,0.6c0.5,0.1,1,0.2,1.7,0.3c0.7,0,1.3,0,2-0.1c0.6-0.1,1.2-0.2,1.8-0.4
		c0.5-0.2,0.9-0.3,1.2-0.5c-0.4,0.9-1.1,1.7-2.2,2.3C54.6,26.4,53.3,26.8,51.7,26.9z"/>
</g>
</svg>
