<?xml version="1.0" encoding="utf-8"?>
<!-- Generator: Adobe Illustrator 15.1.0, SVG Export Plug-In . SVG Version: 6.00 Build 0)  -->
<!DOCTYPE svg PUBLIC "-//W3C//DTD SVG 1.1//EN" "http://www.w3.org/Graphics/SVG/1.1/DTD/svg11.dtd">
<svg version="1.1"
	 id="svg6584" xmlns:svg="http://www.w3.org/2000/svg" xmlns:rdf="http://www.w3.org/1999/02/22-rdf-syntax-ns#" xmlns:cc="http://creativecommons.org/ns#" xmlns:dc="http://purl.org/dc/elements/1.1/"
	 xmlns="http://www.w3.org/2000/svg" xmlns:xlink="http://www.w3.org/1999/xlink" x="0px" y="0px" width="100px" height="100px"
	 viewBox="0 0 100 100" enable-background="new 0 0 100 100" xml:space="preserve">
<g id="layer1" transform="translate(0,-952.362)">
	<path id="rect13326-2-5-2-3" fill="#96834E" d="M39.583,995.196c-12.5,0-25,6.25-25,16.667v8.333h70.833v-8.333
		c0-10.416-12.5-16.667-25-16.667H39.583z M41.667,999.362c1.154,0,2.083,0.93,2.083,2.084s-0.929,2.083-2.083,2.083
		s-2.083-0.929-2.083-2.083S40.513,999.362,41.667,999.362z M58.334,999.362c1.152,0,2.082,0.93,2.082,2.084
		s-0.93,2.083-2.082,2.083c-1.154,0-2.084-0.929-2.084-2.083S57.18,999.362,58.334,999.362z M33.333,1007.695
		c1.154,0,2.083,0.93,2.083,2.084c0,1.153-0.929,2.083-2.083,2.083s-2.083-0.93-2.083-2.083
		C31.25,1008.625,32.179,1007.695,33.333,1007.695z M50,1007.695c1.154,0,2.084,0.93,2.084,2.084c0,1.153-0.93,2.083-2.084,2.083
		c-1.154,0-2.083-0.93-2.083-2.083C47.917,1008.625,48.846,1007.695,50,1007.695z M66.666,1007.695c1.154,0,2.084,0.93,2.084,2.084
		c0,1.153-0.93,2.083-2.084,2.083c-1.152,0-2.082-0.93-2.082-2.083C64.584,1008.625,65.514,1007.695,66.666,1007.695z
		 M14.583,1024.362c-2.083,0-4.167,2.083-4.167,4.167c0,2.083,2.083,4.166,4.167,4.166h70.833c2.084,0,4.168-2.083,4.168-4.166
		c0-2.084-2.084-4.167-4.168-4.167H14.583z M14.583,1036.862v4.167c0,4.166,4.167,8.333,8.333,8.333h54.167
		c4.166,0,8.332-4.167,8.332-8.333v-4.167H14.583z"/>
</g>
</svg>
